<svg width="12" height="16" viewBox="0 0 12 16" fill="none" xmlns="http://www.w3.org/2000/svg">
<g clip-path="url(#clip0_347_397)">
<path d="M1.72227 2.29377C1.33164 1.90315 0.697266 1.90315 0.306641 2.29377C-0.0839844 2.6844 -0.0839844 3.31877 0.306641 3.7094L4.60039 8.00002L0.309766 12.2938C-0.0808594 12.6844 -0.0808594 13.3188 0.309766 13.7094C0.700391 14.1 1.33477 14.1 1.72539 13.7094L6.01602 9.41565L10.3098 13.7063C10.7004 14.0969 11.3348 14.0969 11.7254 13.7063C12.116 13.3156 12.116 12.6813 11.7254 12.2906L7.43164 8.00002L11.7223 3.70627C12.1129 3.31565 12.1129 2.68127 11.7223 2.29065C11.3316 1.90002 10.6973 1.90002 10.3066 2.29065L6.01602 6.5844L1.72227 2.29377Z" fill="white"/>
</g>
<defs>
<clipPath id="clip0_347_397">
<rect width="12" height="16" fill="white"/>
</clipPath>
</defs>
</svg>
